<?xml version="1.0" encoding="utf-8"?>
<!-- Generator: Adobe Illustrator 15.0.0, SVG Export Plug-In . SVG Version: 6.00 Build 0)  -->
<!DOCTYPE svg PUBLIC "-//W3C//DTD SVG 1.1//EN" "http://www.w3.org/Graphics/SVG/1.1/DTD/svg11.dtd">
<svg version="1.1"
	 id="icon" xmlns:dc="http://purl.org/dc/elements/1.1/" xmlns:rdf="http://www.w3.org/1999/02/22-rdf-syntax-ns#" xmlns:cc="http://creativecommons.org/ns#" xmlns:svg="http://www.w3.org/2000/svg" xmlns:inkscape="http://www.inkscape.org/namespaces/inkscape" sodipodi:docname="Motorola.svg" inkscape:version="0.47 r22583" xmlns:sodipodi="http://sodipodi.sourceforge.net/DTD/sodipodi-0.dtd"
	 xmlns="http://www.w3.org/2000/svg" xmlns:xlink="http://www.w3.org/1999/xlink" x="0px" y="0px" width="32px" height="32px"
	 viewBox="20.5 72.978 32 32" enable-background="new 20.5 72.978 32 32" xml:space="preserve">
<path id="motorola" fill="#000" d="M36.498,72.978c8.954,0,16.002,7.213,16.002,15.999c0,8.839-7.166,16.001-16.002,16.001
	C27.662,104.979,20.5,97.815,20.5,88.979C20.5,80.14,27.662,72.978,36.498,72.978 M36.461,92.333l-4.475-14.85l-5.795,19.012h1.087
	c0,0,0.731-3.307,1.92-5.282c0.646-1.073,1.644-1.949,2.977-1.925c0.939,0.019,1.752,0.531,2.769,1.952
	c0.61,0.85,1.551,3.021,1.551,3.021s0.941-2.168,1.553-3.021c1.013-1.421,1.827-1.934,2.769-1.952
	c1.332-0.024,2.331,0.852,2.976,1.927c1.189,1.973,1.92,5.28,1.92,5.28h1.089l-5.798-19.012l-4.474,14.85l-0.032,0.025
	L36.461,92.333L36.461,92.333z"/>
</svg>
